<svg xmlns="http://www.w3.org/2000/svg" viewBox="0 0 120 120">
  <defs>
    <linearGradient id="gradient" x1="0%" y1="0%" x2="100%" y2="100%">
      <stop offset="0%" stop-color="#3b82f6"/>
      <stop offset="100%" stop-color="#06b6d4"/>
    </linearGradient>
    <filter id="shadow" x="-20%" y="-20%" width="140%" height="140%">
      <feDropShadow dx="0" dy="6" stdDeviation="8" flood-color="#0f172a" flood-opacity="0.3"/>
    </filter>
  </defs>
  <rect width="120" height="120" rx="28" fill="url(#gradient)" filter="url(#shadow)"/>
  <path d="M35 40h50a6 6 0 0 1 6 6v28a6 6 0 0 1-6 6H67l-12 10-8-10H35a6 6 0 0 1-6-6V46a6 6 0 0 1 6-6z" fill="#ffffff" opacity="0.92"/>
  <path d="M48 58h24v4H48zm0 10h30v4H48zm0 10h18v4H48z" fill="#0f172a" opacity="0.85"/>
  <circle cx="86" cy="34" r="12" fill="#ffffff" opacity="0.95"/>
  <path d="M83 29h6v10h-6z" fill="#0f172a"/>
  <path d="M78 34h16v4H78z" fill="#0f172a"/>
</svg>
